<?xml version="1.0" encoding="iso-8859-1"?>
<!-- Generator: Adobe Illustrator 16.0.0, SVG Export Plug-In . SVG Version: 6.00 Build 0)  -->
<!DOCTYPE svg PUBLIC "-//W3C//DTD SVG 1.1//EN" "http://www.w3.org/Graphics/SVG/1.1/DTD/svg11.dtd">
<svg version="1.1" id="Layer_1" xmlns="http://www.w3.org/2000/svg" xmlns:xlink="http://www.w3.org/1999/xlink" x="0px" y="0px"
	 width="512px" height="512px" viewBox="0 0 512 512" style="enable-background:new 0 0 512 512;" xml:space="preserve">
<g>
	<path d="M217.373,270.713L11.975,337.316l282.652,52.475l205.398-66.602L217.373,270.713z M289.334,380.129L51.311,335.939
		l171.355-55.564l238.023,44.191L289.334,380.129z"/>
	<polygon points="240.881,304.734 195.291,296.271 119.26,320.924 164.85,329.389 	"/>
	<polygon points="226.235,286.234 210.61,291.303 302.025,308.273 294.985,317.094 401.252,336.822 436.738,325.316 	"/>
	<path d="M274.209,310.922l-11.012-2.045l-76.033,24.654l40.798,7.574c13.555-1.754,30.538-1.564,43.461,0.836
		c12.923,2.398,18.284,6.357,15.091,10.033l43.246,8.031l56.173-18.215L267.169,319.74L274.209,310.922z"/>
	<path d="M233.324,359.416l-10.041,3.256l62.481,11.6l28.675-9.299l-40.791-7.574C262.58,359.822,247.054,360.564,233.324,359.416z"
		/>
	<path d="M210.187,345.617l-106.248-19.727l-28.676,9.301l127.938,23.75l10.04-3.254
		C204.996,352.758,203.695,348.889,210.187,345.617z"/>
	<path d="M265.556,353.799c8.338-2.703,6.236-6.539-4.692-8.568s-26.545-1.482-34.883,1.221c-8.337,2.703-6.235,6.541,4.693,8.568
		C241.603,357.049,257.22,356.502,265.556,353.799z"/>
	<path d="M219.27,227.289h9.605L256,276.475l27.125-49.186h9.605c8.806,0,15.969-7.164,15.969-15.969v-73.143
		c0-8.805-7.163-15.969-15.969-15.969H219.27c-8.806,0-15.969,7.164-15.969,15.969v73.143
		C203.301,220.125,210.464,227.289,219.27,227.289z M222.463,141.373h67.073v66.752h-67.073V141.373z"/>
</g>
</svg>
